<mxfile host="Electron" modified="2023-05-26T13:13:55.281Z" agent="Mozilla/5.0 (Windows NT 10.0; Win64; x64) AppleWebKit/537.36 (KHTML, like Gecko) draw.io/21.2.8 Chrome/112.0.5615.165 Electron/24.2.0 Safari/537.36" etag="lW1sHd6eRTLwSjORIsWV" version="21.2.8" type="device">
  <diagram name="Pagina-1" id="Zp1-cZpG8quEMJQLICH8">
    <mxGraphModel dx="682" dy="-456" grid="1" gridSize="10" guides="1" tooltips="1" connect="1" arrows="1" fold="1" page="1" pageScale="1" pageWidth="827" pageHeight="1169" math="0" shadow="0">
      <root>
        <mxCell id="0" />
        <mxCell id="1" parent="0" />
        <mxCell id="1Ln371liiz6RVWW6KKd3-1" value="&lt;p style=&quot;margin-left:18.0pt&quot; class=&quot;MsoNormal&quot;&gt;&lt;b&gt;4.a modificaAssegnamentoCompitoTurno(&lt;u&gt;compito&lt;/u&gt;: Compito,&amp;nbsp;&lt;u&gt;turno&lt;/u&gt;: turno)&lt;/b&gt;&lt;/p&gt;" style="text;whiteSpace=wrap;html=1;" parent="1" vertex="1">
          <mxGeometry x="590" y="2050" width="530" height="40" as="geometry" />
        </mxCell>
        <mxCell id="1Ln371liiz6RVWW6KKd3-2" style="edgeStyle=orthogonalEdgeStyle;rounded=0;orthogonalLoop=1;jettySize=auto;html=1;exitX=0.5;exitY=1;exitDx=0;exitDy=0;endArrow=none;endFill=0;dashed=1;entryX=0.02;entryY=1.003;entryDx=0;entryDy=0;entryPerimeter=0;exitPerimeter=0;" parent="1" source="1Ln371liiz6RVWW6KKd3-3" edge="1">
          <mxGeometry relative="1" as="geometry">
            <mxPoint x="85" y="3514" as="targetPoint" />
            <mxPoint x="85" y="2250" as="sourcePoint" />
          </mxGeometry>
        </mxCell>
        <mxCell id="1Ln371liiz6RVWW6KKd3-3" value="UI" style="shape=folder;fontStyle=1;spacingTop=10;tabWidth=40;tabHeight=14;tabPosition=left;html=1;whiteSpace=wrap;fillColor=#fff2cc;strokeColor=#d6b656;" parent="1" vertex="1">
          <mxGeometry x="50" y="2110" width="70" height="50" as="geometry" />
        </mxCell>
        <mxCell id="1Ln371liiz6RVWW6KKd3-4" value="modifyAssignedTask(task,turn)" style="html=1;verticalAlign=bottom;endArrow=block;edgeStyle=elbowEdgeStyle;elbow=vertical;curved=0;rounded=0;" parent="1" edge="1">
          <mxGeometry x="-0.002" width="80" relative="1" as="geometry">
            <mxPoint x="90" y="2180.24" as="sourcePoint" />
            <mxPoint x="380" y="2180" as="targetPoint" />
            <mxPoint as="offset" />
          </mxGeometry>
        </mxCell>
        <mxCell id="1Ln371liiz6RVWW6KKd3-5" value="taskManager:KitchenTaskManager" style="html=1;whiteSpace=wrap;fillColor=#fff2cc;strokeColor=#d6b656;" parent="1" vertex="1">
          <mxGeometry x="275" y="2120" width="200" height="30" as="geometry" />
        </mxCell>
        <mxCell id="1Ln371liiz6RVWW6KKd3-6" style="edgeStyle=orthogonalEdgeStyle;rounded=0;orthogonalLoop=1;jettySize=auto;html=1;exitX=0.5;exitY=1;exitDx=0;exitDy=0;endArrow=none;endFill=0;dashed=1;entryX=0.02;entryY=1.003;entryDx=0;entryDy=0;entryPerimeter=0;exitPerimeter=0;" parent="1" edge="1">
          <mxGeometry relative="1" as="geometry">
            <mxPoint x="380" y="3507" as="targetPoint" />
            <mxPoint x="380" y="2153" as="sourcePoint" />
          </mxGeometry>
        </mxCell>
        <mxCell id="1Ln371liiz6RVWW6KKd3-7" value="newTask: Task" style="html=1;whiteSpace=wrap;fillColor=#fff2cc;strokeColor=#d6b656;" parent="1" vertex="1">
          <mxGeometry x="1222" y="2120" width="109" height="30" as="geometry" />
        </mxCell>
        <mxCell id="1Ln371liiz6RVWW6KKd3-8" value="ktListener: KitchenTaskEventReceiver" style="html=1;whiteSpace=wrap;fillColor=#fff2cc;strokeColor=#d6b656;" parent="1" vertex="1">
          <mxGeometry x="550" y="2120" width="160" height="30" as="geometry" />
        </mxCell>
        <mxCell id="1Ln371liiz6RVWW6KKd3-9" style="edgeStyle=orthogonalEdgeStyle;rounded=0;orthogonalLoop=1;jettySize=auto;html=1;exitX=0.5;exitY=1;exitDx=0;exitDy=0;endArrow=none;endFill=0;dashed=1;entryX=0.02;entryY=1.003;entryDx=0;entryDy=0;entryPerimeter=0;exitPerimeter=0;" parent="1" edge="1">
          <mxGeometry relative="1" as="geometry">
            <mxPoint x="629.29" y="3504" as="targetPoint" />
            <mxPoint x="629.29" y="2150" as="sourcePoint" />
          </mxGeometry>
        </mxCell>
        <mxCell id="1Ln371liiz6RVWW6KKd3-10" style="edgeStyle=orthogonalEdgeStyle;rounded=0;orthogonalLoop=1;jettySize=auto;html=1;exitX=0.5;exitY=1;exitDx=0;exitDy=0;endArrow=none;endFill=0;dashed=1;entryX=0.02;entryY=1.003;entryDx=0;entryDy=0;entryPerimeter=0;exitPerimeter=0;" parent="1" edge="1">
          <mxGeometry relative="1" as="geometry">
            <mxPoint x="1275.79" y="3504" as="targetPoint" />
            <mxPoint x="1275.79" y="2150" as="sourcePoint" />
          </mxGeometry>
        </mxCell>
        <mxCell id="1Ln371liiz6RVWW6KKd3-11" value="currentSheet.taskList: Arraylist&amp;lt;Task&amp;gt;" style="html=1;whiteSpace=wrap;fillColor=#fff2cc;strokeColor=#d6b656;" parent="1" vertex="1">
          <mxGeometry x="910" y="2120" width="170" height="30" as="geometry" />
        </mxCell>
        <mxCell id="1Ln371liiz6RVWW6KKd3-12" style="edgeStyle=orthogonalEdgeStyle;rounded=0;orthogonalLoop=1;jettySize=auto;html=1;exitX=0.5;exitY=1;exitDx=0;exitDy=0;endArrow=none;endFill=0;dashed=1;entryX=0.02;entryY=1.003;entryDx=0;entryDy=0;entryPerimeter=0;exitPerimeter=0;" parent="1" edge="1">
          <mxGeometry relative="1" as="geometry">
            <mxPoint x="994.29" y="3504" as="targetPoint" />
            <mxPoint x="994.29" y="2150" as="sourcePoint" />
          </mxGeometry>
        </mxCell>
        <mxCell id="1Ln371liiz6RVWW6KKd3-13" value="modifyAssignedTask(task,turn)" style="html=1;verticalAlign=bottom;endArrow=block;edgeStyle=elbowEdgeStyle;elbow=vertical;curved=0;rounded=0;align=center;dashed=1;" parent="1" edge="1">
          <mxGeometry x="-0.3175" width="80" relative="1" as="geometry">
            <mxPoint x="380" y="2330.24" as="sourcePoint" />
            <mxPoint x="820" y="2330" as="targetPoint" />
            <mxPoint as="offset" />
          </mxGeometry>
        </mxCell>
        <mxCell id="1Ln371liiz6RVWW6KKd3-14" value="taskManager.currentSheet: summarySheet" style="html=1;whiteSpace=wrap;fillColor=#fff2cc;strokeColor=#d6b656;" parent="1" vertex="1">
          <mxGeometry x="730" y="2120" width="170" height="30" as="geometry" />
        </mxCell>
        <mxCell id="1Ln371liiz6RVWW6KKd3-15" style="edgeStyle=orthogonalEdgeStyle;rounded=0;orthogonalLoop=1;jettySize=auto;html=1;exitX=0.5;exitY=1;exitDx=0;exitDy=0;endArrow=none;endFill=0;dashed=1;entryX=0.02;entryY=1.003;entryDx=0;entryDy=0;entryPerimeter=0;exitPerimeter=0;" parent="1" edge="1">
          <mxGeometry relative="1" as="geometry">
            <mxPoint x="820" y="3504" as="targetPoint" />
            <mxPoint x="820" y="2150" as="sourcePoint" />
          </mxGeometry>
        </mxCell>
        <mxCell id="1Ln371liiz6RVWW6KKd3-16" value="newTask" style="html=1;verticalAlign=bottom;endArrow=open;dashed=1;endSize=8;edgeStyle=elbowEdgeStyle;elbow=vertical;curved=0;rounded=0;" parent="1" edge="1">
          <mxGeometry relative="1" as="geometry">
            <mxPoint x="1276" y="2510" as="sourcePoint" />
            <mxPoint x="833" y="2510" as="targetPoint" />
          </mxGeometry>
        </mxCell>
        <mxCell id="1Ln371liiz6RVWW6KKd3-17" value="newTask" style="html=1;verticalAlign=bottom;endArrow=open;dashed=1;endSize=8;edgeStyle=elbowEdgeStyle;elbow=vertical;curved=0;rounded=0;" parent="1" edge="1">
          <mxGeometry relative="1" as="geometry">
            <mxPoint x="812" y="2520.35" as="sourcePoint" />
            <mxPoint x="389" y="2520" as="targetPoint" />
          </mxGeometry>
        </mxCell>
        <mxCell id="1Ln371liiz6RVWW6KKd3-19" value="" style="html=1;points=[];perimeter=orthogonalPerimeter;outlineConnect=0;targetShapes=umlLifeline;portConstraint=eastwest;newEdgeStyle={&quot;edgeStyle&quot;:&quot;elbowEdgeStyle&quot;,&quot;elbow&quot;:&quot;vertical&quot;,&quot;curved&quot;:0,&quot;rounded&quot;:0};shadow=0;imageAspect=1;fillOpacity=50;strokeOpacity=50;" parent="1" vertex="1">
          <mxGeometry x="370" y="2190" width="20" height="520" as="geometry" />
        </mxCell>
        <mxCell id="1Ln371liiz6RVWW6KKd3-20" value="" style="html=1;points=[];perimeter=orthogonalPerimeter;outlineConnect=0;targetShapes=umlLifeline;portConstraint=eastwest;newEdgeStyle={&quot;edgeStyle&quot;:&quot;elbowEdgeStyle&quot;,&quot;elbow&quot;:&quot;vertical&quot;,&quot;curved&quot;:0,&quot;rounded&quot;:0};shadow=0;imageAspect=1;fillOpacity=50;strokeOpacity=50;" parent="1" vertex="1">
          <mxGeometry x="812" y="2330" width="15" height="190" as="geometry" />
        </mxCell>
        <mxCell id="1Ln371liiz6RVWW6KKd3-21" value="" style="html=1;points=[];perimeter=orthogonalPerimeter;outlineConnect=0;targetShapes=umlLifeline;portConstraint=eastwest;newEdgeStyle={&quot;edgeStyle&quot;:&quot;elbowEdgeStyle&quot;,&quot;elbow&quot;:&quot;vertical&quot;,&quot;curved&quot;:0,&quot;rounded&quot;:0};shadow=0;imageAspect=1;fillOpacity=50;strokeOpacity=50;" parent="1" vertex="1">
          <mxGeometry x="1267.5" y="2350" width="15" height="160" as="geometry" />
        </mxCell>
        <mxCell id="1Ln371liiz6RVWW6KKd3-22" value="&lt;font style=&quot;font-size: 10px;&quot;&gt;LOOP:for all ktListener in eventReceiver&lt;/font&gt;" style="shape=umlFrame;whiteSpace=wrap;html=1;pointerEvents=0;width=200;height=20;" parent="1" vertex="1">
          <mxGeometry x="357.5" y="2590" width="302.5" height="101" as="geometry" />
        </mxCell>
        <mxCell id="1Ln371liiz6RVWW6KKd3-23" value="notifyModifiedAssignedTask(newTask)" style="html=1;align=left;spacingLeft=2;endArrow=block;rounded=0;edgeStyle=orthogonalEdgeStyle;curved=0;rounded=0;" parent="1" edge="1">
          <mxGeometry relative="1" as="geometry">
            <mxPoint x="390" y="2550" as="sourcePoint" />
            <Array as="points">
              <mxPoint x="420" y="2580" />
            </Array>
            <mxPoint x="395" y="2580.0526315789475" as="targetPoint" />
          </mxGeometry>
        </mxCell>
        <mxCell id="1Ln371liiz6RVWW6KKd3-24" value="updateModifiedAssignedTask(newTask)" style="html=1;verticalAlign=bottom;endArrow=block;edgeStyle=elbowEdgeStyle;elbow=vertical;curved=0;rounded=0;align=center;" parent="1" edge="1">
          <mxGeometry x="-0.1313" width="80" relative="1" as="geometry">
            <mxPoint x="390" y="2640.24" as="sourcePoint" />
            <mxPoint x="620" y="2640" as="targetPoint" />
            <mxPoint as="offset" />
          </mxGeometry>
        </mxCell>
        <mxCell id="1Ln371liiz6RVWW6KKd3-25" value="" style="html=1;points=[];perimeter=orthogonalPerimeter;outlineConnect=0;targetShapes=umlLifeline;portConstraint=eastwest;newEdgeStyle={&quot;edgeStyle&quot;:&quot;elbowEdgeStyle&quot;,&quot;elbow&quot;:&quot;vertical&quot;,&quot;curved&quot;:0,&quot;rounded&quot;:0};shadow=0;imageAspect=1;fillOpacity=50;strokeOpacity=50;" parent="1" vertex="1">
          <mxGeometry x="622.5" y="2640" width="15" height="31" as="geometry" />
        </mxCell>
        <mxCell id="1Ln371liiz6RVWW6KKd3-26" value="newTask" style="html=1;verticalAlign=bottom;endArrow=open;dashed=1;endSize=8;edgeStyle=elbowEdgeStyle;elbow=vertical;curved=0;rounded=0;" parent="1" edge="1">
          <mxGeometry relative="1" as="geometry">
            <mxPoint x="370" y="2710" as="sourcePoint" />
            <mxPoint x="90" y="2710.16" as="targetPoint" />
          </mxGeometry>
        </mxCell>
        <mxCell id="1Ln371liiz6RVWW6KKd3-27" value="ALT turn.isExhausted() || task.eximatedTime &amp;gt; turn.timeLeft()" style="shape=umlFrame;whiteSpace=wrap;html=1;pointerEvents=0;width=770;height=20;fillColor=#f8cecc;strokeColor=#b85450;align=left;" parent="1" vertex="1">
          <mxGeometry x="50" y="2190" width="1550" height="540" as="geometry" />
        </mxCell>
        <mxCell id="1Ln371liiz6RVWW6KKd3-28" value="throwTurnAvaibleException" style="html=1;verticalAlign=bottom;endArrow=open;dashed=1;endSize=8;edgeStyle=elbowEdgeStyle;elbow=vertical;curved=0;rounded=0;" parent="1" edge="1">
          <mxGeometry relative="1" as="geometry">
            <mxPoint x="380" y="2230" as="sourcePoint" />
            <mxPoint x="90" y="2230" as="targetPoint" />
          </mxGeometry>
        </mxCell>
        <mxCell id="1Ln371liiz6RVWW6KKd3-29" value="" style="html=1;verticalAlign=bottom;endArrow=none;dashed=1;endSize=8;edgeStyle=elbowEdgeStyle;elbow=vertical;curved=0;rounded=0;exitX=1.001;exitY=0.072;exitDx=0;exitDy=0;exitPerimeter=0;fillColor=#f8cecc;strokeColor=#b85450;endFill=0;" parent="1" source="1Ln371liiz6RVWW6KKd3-27" edge="1">
          <mxGeometry relative="1" as="geometry">
            <mxPoint x="130" y="2260" as="sourcePoint" />
            <mxPoint x="50" y="2260" as="targetPoint" />
            <Array as="points">
              <mxPoint x="320" y="2240" />
            </Array>
          </mxGeometry>
        </mxCell>
        <mxCell id="1Ln371liiz6RVWW6KKd3-30" value="" style="html=1;verticalAlign=bottom;endArrow=none;dashed=1;endSize=8;edgeStyle=elbowEdgeStyle;elbow=vertical;curved=0;rounded=0;exitX=1;exitY=0.111;exitDx=0;exitDy=0;exitPerimeter=0;fillColor=#f8cecc;strokeColor=#b85450;endFill=0;" parent="1" source="1Ln371liiz6RVWW6KKd3-38" edge="1">
          <mxGeometry relative="1" as="geometry">
            <mxPoint x="1654.7999999999997" y="2299.42" as="sourcePoint" />
            <mxPoint x="50" y="2310" as="targetPoint" />
            <Array as="points">
              <mxPoint x="320" y="2290" />
            </Array>
          </mxGeometry>
        </mxCell>
        <mxCell id="1Ln371liiz6RVWW6KKd3-31" value="newTask.cooks: ArrayList&amp;lt;Cook&amp;gt;" style="html=1;whiteSpace=wrap;fillColor=#fff2cc;strokeColor=#d6b656;" parent="1" vertex="1">
          <mxGeometry x="1490" y="2120" width="109" height="30" as="geometry" />
        </mxCell>
        <mxCell id="1Ln371liiz6RVWW6KKd3-32" style="edgeStyle=orthogonalEdgeStyle;rounded=0;orthogonalLoop=1;jettySize=auto;html=1;exitX=0.5;exitY=1;exitDx=0;exitDy=0;endArrow=none;endFill=0;dashed=1;entryX=0.02;entryY=1.003;entryDx=0;entryDy=0;entryPerimeter=0;exitPerimeter=0;" parent="1" edge="1">
          <mxGeometry relative="1" as="geometry">
            <mxPoint x="1544" y="3504" as="targetPoint" />
            <mxPoint x="1544" y="2150" as="sourcePoint" />
          </mxGeometry>
        </mxCell>
        <mxCell id="1Ln371liiz6RVWW6KKd3-35" value="modifyAssignedTask(turn)" style="html=1;verticalAlign=bottom;endArrow=block;edgeStyle=elbowEdgeStyle;elbow=vertical;curved=0;rounded=0;align=center;dashed=1;" parent="1" edge="1">
          <mxGeometry x="-0.4058" width="80" relative="1" as="geometry">
            <mxPoint x="827" y="2350.5999999999995" as="sourcePoint" />
            <mxPoint x="1267" y="2350.3599999999997" as="targetPoint" />
            <mxPoint as="offset" />
          </mxGeometry>
        </mxCell>
        <mxCell id="1Ln371liiz6RVWW6KKd3-36" value="delete(cook)" style="html=1;verticalAlign=bottom;endArrow=block;edgeStyle=elbowEdgeStyle;elbow=vertical;curved=0;rounded=0;" parent="1" edge="1">
          <mxGeometry x="-0.6311" width="80" relative="1" as="geometry">
            <mxPoint x="1282.5" y="2400" as="sourcePoint" />
            <mxPoint x="1540" y="2400" as="targetPoint" />
            <mxPoint x="1" as="offset" />
          </mxGeometry>
        </mxCell>
        <mxCell id="1Ln371liiz6RVWW6KKd3-37" value="" style="html=1;points=[];perimeter=orthogonalPerimeter;outlineConnect=0;targetShapes=umlLifeline;portConstraint=eastwest;newEdgeStyle={&quot;edgeStyle&quot;:&quot;elbowEdgeStyle&quot;,&quot;elbow&quot;:&quot;vertical&quot;,&quot;curved&quot;:0,&quot;rounded&quot;:0};shadow=0;imageAspect=1;fillOpacity=50;strokeOpacity=50;" parent="1" vertex="1">
          <mxGeometry x="1540" y="2400" width="10" height="10" as="geometry" />
        </mxCell>
        <mxCell id="1Ln371liiz6RVWW6KKd3-38" value="ALT task.isDone()" style="shape=umlFrame;whiteSpace=wrap;html=1;pointerEvents=0;width=120;height=20;fillColor=#f8cecc;strokeColor=#b85450;" parent="1" vertex="1">
          <mxGeometry x="50" y="2240" width="1550" height="490" as="geometry" />
        </mxCell>
        <mxCell id="1Ln371liiz6RVWW6KKd3-39" value="throw TaskException" style="html=1;verticalAlign=bottom;endArrow=open;dashed=1;endSize=8;edgeStyle=elbowEdgeStyle;elbow=vertical;curved=0;rounded=0;" parent="1" edge="1">
          <mxGeometry relative="1" as="geometry">
            <mxPoint x="380" y="2277" as="sourcePoint" />
            <mxPoint x="90" y="2277" as="targetPoint" />
          </mxGeometry>
        </mxCell>
        <mxCell id="1Ln371liiz6RVWW6KKd3-41" value="LOOP for all cook in cooks" style="shape=umlFrame;whiteSpace=wrap;html=1;pointerEvents=0;width=190;height=22;" parent="1" vertex="1">
          <mxGeometry x="1250" y="2308" width="340" height="152" as="geometry" />
        </mxCell>
        <mxCell id="1Ln371liiz6RVWW6KKd3-42" value="ALT: !cook.getTurns().contais(turn)" style="shape=umlFrame;whiteSpace=wrap;html=1;pointerEvents=0;width=221;height=20;" parent="1" vertex="1">
          <mxGeometry x="1259" y="2360" width="311" height="70" as="geometry" />
        </mxCell>
        <mxCell id="1Ln371liiz6RVWW6KKd3-44" value="this.turn = turn" style="html=1;align=left;spacingLeft=2;endArrow=block;rounded=0;edgeStyle=orthogonalEdgeStyle;curved=0;rounded=0;" parent="1" edge="1">
          <mxGeometry relative="1" as="geometry">
            <mxPoint x="1280" y="2470" as="sourcePoint" />
            <Array as="points">
              <mxPoint x="1310" y="2500" />
            </Array>
            <mxPoint x="1285" y="2500" as="targetPoint" />
          </mxGeometry>
        </mxCell>
      </root>
    </mxGraphModel>
  </diagram>
</mxfile>
